<svg width="32" height="32" viewBox="0 0 32 32" fill="none" xmlns="http://www.w3.org/2000/svg"><path d="M16 32c8.837 0 16-7.163 16-16S24.837 0 16 0 0 7.163 0 16s7.163 16 16 16z" fill="#fff"></path><path d="M18.21 11.594a1.07 1.07 0 0 1 .45-.06h1.48a1.07 1.07 0 0 0 1.08-1.07v-2.59a1.07 1.07 0 0 0-1.08-1.07h-2.19a4.69 4.69 0 0 0-3.48 1.35 5 5 0 0 0-1.32 3.54v1.2h-1.48a1.07 1.07 0 0 0-1.07 1.07v2.79a1.07 1.07 0 0 0 1.07 1.07h1.48v6.3a1.09 1.09 0 0 0 1.08 1.08h2.88a1.08 1.08 0 0 0 1.07-1.08v-6.3h1.86a1.07 1.07 0 0 0 1.07-1.07v-2.79a1.06 1.06 0 0 0-1.08-1.07h-1.85v-.86c0-.148.01-.295.03-.44zm-4.41 4.77h-1.74v-2h1.74a.78.78 0 0 0 .78-.78v-1.89a3.15 3.15 0 0 1 3.37-3.44h1.85v1.83h-1.14a2 2 0 0 0-1.53.54 2 2 0 0 0-.4 1.41v1.53a.78.78 0 0 0 .78.78h2.15v2h-2.15a.79.79 0 0 0-.78.79v6.59h-2.12v-6.57a.79.79 0 0 0-.81-.79z" fill="#5D4C3C"></path></svg>