<svg width="42" height="49" viewBox="0 0 42 49" fill="none" xmlns="http://www.w3.org/2000/svg">
<g clip-path="url(#clip0_7_2777)">
<path d="M19.2607 31.5673C10.4874 20.1779 7.29874 7.00439 7.29874 7.00439C7.29874 7.00439 19.15 13.3557 27.9233 24.7451C30.9149 28.6289 33.3277 32.7129 34.6308 36.0988C35.9339 39.4847 35.4044 41.0952 34.2557 41.9998C33.1069 42.9045 31.4331 43.0294 28.5054 40.9229C25.5777 38.8164 22.2523 35.4511 19.2607 31.5673Z" stroke="white" stroke-width="1.58559" stroke-linecap="round" stroke-linejoin="round"/>
<path d="M27.6913 31.8354C27.0389 32.3492 27.0587 33.4779 27.7354 34.3564C28.4121 35.2349 29.4896 35.5306 30.142 35.0168C30.7944 34.503 30.7747 33.3743 30.0979 32.4958C29.4212 31.6173 28.3437 31.3216 27.6913 31.8354Z" stroke="white" stroke-width="1.58559" stroke-linecap="round" stroke-linejoin="round"/>
</g>
<defs>
<clipPath id="clip0_7_2777">
<rect width="14.0337" height="49.194" fill="white" transform="matrix(-0.785619 0.618711 -0.610242 -0.792215 42 39.7344)"/>
</clipPath>
</defs>
</svg>
