<svg width="20" height="19" viewBox="0 0 20 19" fill="none" xmlns="http://www.w3.org/2000/svg">
<path d="M17 7.95455C17 13.3636 9.5 18 9.5 18C9.5 18 2 13.3636 2 7.95455C2 6.11009 2.79018 4.34117 4.1967 3.03694C5.60322 1.73271 7.51088 1 9.5 1C11.4891 1 13.3968 1.73271 14.8033 3.03694C16.2098 4.34117 17 6.11009 17 7.95455Z" stroke="white" stroke-width="1.53782" stroke-linecap="round" stroke-linejoin="round"/>
<path d="M9.5 11C10.8807 11 12 9.88071 12 8.5C12 7.11929 10.8807 6 9.5 6C8.11929 6 7 7.11929 7 8.5C7 9.88071 8.11929 11 9.5 11Z" stroke="white" stroke-width="1.53782" stroke-linecap="round" stroke-linejoin="round"/>
</svg>
