<svg width="20" height="21" viewBox="0 0 20 21" fill="none" xmlns="http://www.w3.org/2000/svg">
<path d="M4.60039 13.1078C4.60039 14.2636 3.6562 15.2078 2.50039 15.2078C1.34458 15.2078 0.400391 14.2636 0.400391 13.1078C0.400391 11.952 1.34458 11.0078 2.50039 11.0078C3.66019 11.0078 4.60039 11.948 4.60039 13.1078Z" fill="#E01E5A"/>
<path d="M5.20117 13.0061C5.20117 11.9063 6.14536 11.0078 7.30117 11.0078C8.45699 11.0078 9.40117 11.9063 9.40117 13.0061V18.0095C9.40117 19.1094 8.45699 20.0078 7.30117 20.0078C6.14536 20.0078 5.20117 19.1094 5.20117 18.0095V13.0061Z" fill="#E01E5A"/>
<path d="M7.30117 5.00469C6.14536 5.00469 5.20117 4.0605 5.20117 2.90469C5.20117 1.74887 6.14536 0.804688 7.30117 0.804688C8.45699 0.804688 9.40117 1.74887 9.40117 2.90469C9.40117 4.06449 8.46097 5.00469 7.30117 5.00469Z" fill="#36C5F0"/>
<path d="M7.40211 5.60156C8.50194 5.60156 9.40039 6.54575 9.40039 7.70156C9.40039 8.85738 8.50194 9.80156 7.40211 9.80156H2.39867C1.29884 9.80156 0.400391 8.85738 0.400391 7.70156C0.400391 6.54575 1.29884 5.60156 2.39867 5.60156H7.40211Z" fill="#36C5F0"/>
<path d="M15.4004 7.70156C15.4004 6.54575 16.3446 5.60156 17.5004 5.60156C18.6562 5.60156 19.6004 6.54575 19.6004 7.70156C19.6004 8.85738 18.6562 9.80156 17.5004 9.80156C16.3406 9.80156 15.4004 8.86136 15.4004 7.70156Z" fill="#2EB67D"/>
<path d="M14.7996 7.80641C14.7996 8.90624 13.8554 9.80469 12.6996 9.80469C11.5438 9.80469 10.5996 8.90624 10.5996 7.80641V2.80297C10.5996 1.70314 11.5438 0.804688 12.6996 0.804688C13.8554 0.804688 14.7996 1.70314 14.7996 2.80297V7.80641Z" fill="#2EB67D"/>
<path d="M12.6996 15.8047C13.8554 15.8047 14.7996 16.7489 14.7996 17.9047C14.7996 19.0605 13.8554 20.0047 12.6996 20.0047C11.5438 20.0047 10.5996 19.0605 10.5996 17.9047C10.5996 16.7449 11.5398 15.8047 12.6996 15.8047Z" fill="#ECB22E"/>
<path d="M12.5979 15.2078C11.4981 15.2078 10.5996 14.2636 10.5996 13.1078C10.5996 11.952 11.4981 11.0078 12.5979 11.0078H17.6013C18.7012 11.0078 19.5996 11.952 19.5996 13.1078C19.5996 14.2636 18.7012 15.2078 17.6013 15.2078H12.5979Z" fill="#ECB22E"/>
</svg>
