<svg width="64" height="22" viewBox="0 0 64 22" fill="none" xmlns="http://www.w3.org/2000/svg">
<path d="M11.7521 21.4015C10.9807 21.8005 9.81818 22 8.26446 22C4.58402 22 2.7438 20.1289 2.7438 16.3868V8.8H0V5.03088H2.7438V1.45588L7.95041 0V5.03088H11.7521V8.8H7.95041V15.4971C7.95041 17.2225 8.65014 18.0853 10.0496 18.0853C10.6006 18.0853 11.168 17.9289 11.7521 17.6162V21.4015Z" fill="white"/>
<path d="M25.7521 9.64118C25.124 9.30686 24.3912 9.13971 23.5537 9.13971C22.4187 9.13971 21.5317 9.54951 20.8926 10.3691C20.2534 11.1779 19.9339 12.2833 19.9339 13.6853V21.5956H14.7107V5.03088H19.9339V8.10441H20C20.8264 5.86127 22.314 4.73971 24.4628 4.73971C25.0138 4.73971 25.4435 4.80441 25.7521 4.93382V9.64118Z" fill="white"/>
<path d="M44.3802 21.5956H39.1736V19.0721H39.0909C37.8017 21.024 36.0771 22 33.9174 22C29.9945 22 28.0331 19.676 28.0331 15.0279V5.03088H33.2397V14.575C33.2397 16.9152 34.1873 18.0853 36.0826 18.0853C37.0193 18.0853 37.7686 17.7672 38.3306 17.1309C38.8926 16.4838 39.1736 15.6103 39.1736 14.5103V5.03088H44.3802V21.5956Z" fill="white"/>
<path d="M64 14.7691H52.9587C53.135 17.174 54.6832 18.3765 57.6033 18.3765C59.4656 18.3765 61.1019 17.9451 62.5124 17.0824V20.7706C60.9477 21.5902 58.9146 22 56.4132 22C53.6804 22 51.5592 21.2613 50.0496 19.7838C48.5399 18.2956 47.7851 16.225 47.7851 13.5721C47.7851 10.8221 48.6006 8.64363 50.2314 7.03676C51.8623 5.4299 53.8678 4.62647 56.2479 4.62647C58.7163 4.62647 60.6226 5.34363 61.9669 6.77794C63.3223 8.21225 64 10.1588 64 12.6176V14.7691ZM59.157 11.6309C59.157 9.25833 58.1763 8.07206 56.2149 8.07206C55.3774 8.07206 54.6501 8.41176 54.0331 9.09118C53.427 9.77059 53.0578 10.6172 52.9256 11.6309H59.157Z" fill="white"/>
</svg>
