<svg width="27" height="28" viewBox="0 0 27 28" fill="none" xmlns="http://www.w3.org/2000/svg">
<path fill-rule="evenodd" clip-rule="evenodd" d="M27 14C27 21.4558 20.9558 27.5 13.5 27.5C6.04416 27.5 0 21.4558 0 14C0 6.54416 6.04416 0.5 13.5 0.5C20.9558 0.5 27 6.54416 27 14ZM15 23C15 23.8284 14.3284 24.5 13.5 24.5C12.6716 24.5 12 23.8284 12 23C12 22.1716 12.6716 21.5 13.5 21.5C14.3284 21.5 15 22.1716 15 23ZM13.5 3.5C10.1863 3.5 7.5 6.18629 7.5 9.5H10.5C10.5 7.84315 11.8431 6.5 13.5 6.5H13.6415C15.2202 6.5 16.5 7.77981 16.5 9.35854V10.1283C16.5 10.899 16.0068 11.5833 15.2757 11.827C13.3195 12.479 12 14.3097 12 16.3717V20H15V16.3717C15 15.601 15.4932 14.9167 16.2243 14.673C18.1805 14.021 19.5 12.1903 19.5 10.1283V9.35854C19.5 6.12296 16.877 3.5 13.6415 3.5H13.5Z" fill="white"/>
</svg>
