<svg width="22" height="22" viewBox="0 0 22 22" fill="none" xmlns="http://www.w3.org/2000/svg">
<g clip-path="url(#clip0_7_3433)">
<path d="M20.7945 6.05449C20.6792 5.62049 20.4519 5.22439 20.1354 4.90584C19.8188 4.58729 19.4242 4.35746 18.991 4.23935C17.396 3.81049 11.021 3.81049 11.021 3.81049C11.021 3.81049 4.64604 3.81049 3.05114 4.23935C2.61789 4.35746 2.22326 4.58729 1.90674 4.90584C1.59022 5.22439 1.36292 5.62049 1.24759 6.05449C0.821045 7.65635 0.821045 10.9968 0.821045 10.9968C0.821045 10.9968 0.821045 14.3373 1.24759 15.9392C1.36292 16.3732 1.59022 16.7693 1.90674 17.0879C2.22326 17.4064 2.61789 17.6362 3.05114 17.7543C4.64604 18.1832 11.021 18.1832 11.021 18.1832C11.021 18.1832 17.396 18.1832 18.991 17.7543C19.4242 17.6362 19.8188 17.4064 20.1354 17.0879C20.4519 16.7693 20.6792 16.3732 20.7945 15.9392C21.221 14.3373 21.221 10.9968 21.221 10.9968C21.221 10.9968 21.221 7.65635 20.7945 6.05449Z" fill="#FF0302"/>
<path d="M8.93457 14.0302V7.96356L14.2664 10.9969L8.93457 14.0302Z" fill="#FEFEFE"/>
</g>
<defs>
<clipPath id="clip0_7_3433">
<rect width="20.4" height="20.4" fill="white" transform="translate(0.800781 0.796875)"/>
</clipPath>
</defs>
</svg>
