<svg width="22" height="22" viewBox="0 0 22 22" fill="none" xmlns="http://www.w3.org/2000/svg">
<g clip-path="url(#clip0_7_3419)">
<path d="M7.21617 19.285C14.9143 19.285 19.1249 12.9071 19.1249 7.37628C19.1249 7.19513 19.1249 7.01479 19.1126 6.83527C19.9318 6.24278 20.6388 5.50917 21.2008 4.66879C20.437 5.00743 19.6266 5.22941 18.7968 5.3273C19.6706 4.80429 20.3246 3.98157 20.6369 3.01231C19.8154 3.49988 18.9165 3.84346 17.9792 4.02823C17.3482 3.35722 16.5136 2.9129 15.6045 2.76401C14.6955 2.61513 13.7628 2.76999 12.9507 3.20463C12.1385 3.63927 11.4923 4.32945 11.1119 5.16838C10.7316 6.00731 10.6383 6.94821 10.8466 7.84548C9.18254 7.76201 7.55467 7.32956 6.06862 6.5762C4.58256 5.82284 3.27153 4.7654 2.22062 3.47254C1.6854 4.39393 1.52147 5.48468 1.76222 6.5227C2.00296 7.56071 2.63027 8.46795 3.51643 9.05969C2.85033 9.04017 2.19873 8.86048 1.61678 8.53582V8.58886C1.61705 9.55518 1.95155 10.4917 2.56357 11.2395C3.17559 11.9873 4.02743 12.5004 4.97462 12.6917C4.35844 12.8598 3.71192 12.8843 3.08476 12.7635C3.35232 13.5951 3.87305 14.3223 4.57413 14.8434C5.27522 15.3645 6.12163 15.6536 6.99504 15.6701C6.12725 16.3522 5.1335 16.8565 4.07062 17.1542C3.00775 17.4519 1.89661 17.5371 0.800781 17.4049C2.71484 18.6332 4.94192 19.2847 7.21617 19.2817" fill="#1DA1F2"/>
</g>
<defs>
<clipPath id="clip0_7_3419">
<rect width="20.4" height="20.4" fill="white" transform="translate(0.800781 0.796875)"/>
</clipPath>
</defs>
</svg>
