<svg width="20" height="20" viewBox="0 0 20 20" fill="none" xmlns="http://www.w3.org/2000/svg">
<path d="M16.32 4.71844C16.32 5.51373 15.6753 6.15844 14.88 6.15844C14.0847 6.15844 13.44 5.51373 13.44 4.71844C13.44 3.92315 14.0847 3.27844 14.88 3.27844C15.6753 3.27844 16.32 3.92315 16.32 4.71844Z" fill="url(#paint0_linear_7_3436)"/>
<path fill-rule="evenodd" clip-rule="evenodd" d="M9.6 14.7984C12.251 14.7984 14.4 12.6494 14.4 9.99844C14.4 7.34747 12.251 5.19844 9.6 5.19844C6.94903 5.19844 4.8 7.34747 4.8 9.99844C4.8 12.6494 6.94903 14.7984 9.6 14.7984ZM9.6 12.8784C11.1906 12.8784 12.48 11.589 12.48 9.99844C12.48 8.40786 11.1906 7.11844 9.6 7.11844C8.00942 7.11844 6.72 8.40786 6.72 9.99844C6.72 11.589 8.00942 12.8784 9.6 12.8784Z" fill="url(#paint1_linear_7_3436)"/>
<path fill-rule="evenodd" clip-rule="evenodd" d="M0 9.61444C0 6.38854 0 4.77558 0.627802 3.54345C1.18003 2.45964 2.0612 1.57847 3.14501 1.02624C4.37715 0.398438 5.9901 0.398438 9.216 0.398438H9.984C13.2099 0.398438 14.8229 0.398438 16.055 1.02624C17.1388 1.57847 18.02 2.45964 18.5722 3.54345C19.2 4.77558 19.2 6.38854 19.2 9.61444V10.3824C19.2 13.6083 19.2 15.2213 18.5722 16.4534C18.02 17.5372 17.1388 18.4184 16.055 18.9706C14.8229 19.5984 13.2099 19.5984 9.984 19.5984H9.216C5.9901 19.5984 4.37715 19.5984 3.14501 18.9706C2.0612 18.4184 1.18003 17.5372 0.627802 16.4534C0 15.2213 0 13.6083 0 10.3824V9.61444ZM9.216 2.31844H9.984C11.6286 2.31844 12.7466 2.31993 13.6108 2.39054C14.4526 2.45931 14.883 2.58397 15.1833 2.73697C15.9059 3.10513 16.4933 3.69257 16.8615 4.41511C17.0145 4.7154 17.1391 5.14587 17.2079 5.98763C17.2785 6.8518 17.28 7.9698 17.28 9.61444V10.3824C17.28 12.0271 17.2785 13.1451 17.2079 14.0092C17.1391 14.851 17.0145 15.2815 16.8615 15.5818C16.4933 16.3043 15.9059 16.8917 15.1833 17.2599C14.883 17.4129 14.4526 17.5376 13.6108 17.6063C12.7466 17.6769 11.6286 17.6784 9.984 17.6784H9.216C7.57137 17.6784 6.45336 17.6769 5.58919 17.6063C4.74744 17.5376 4.31696 17.4129 4.01668 17.2599C3.29413 16.8917 2.70669 16.3043 2.33854 15.5818C2.18553 15.2815 2.06087 14.851 1.9921 14.0092C1.92149 13.1451 1.92 12.0271 1.92 10.3824V9.61444C1.92 7.9698 1.92149 6.8518 1.9921 5.98763C2.06087 5.14587 2.18553 4.7154 2.33854 4.41511C2.70669 3.69257 3.29413 3.10513 4.01668 2.73697C4.31696 2.58397 4.74744 2.45931 5.58919 2.39054C6.45336 2.31993 7.57137 2.31844 9.216 2.31844Z" fill="url(#paint2_linear_7_3436)"/>
<defs>
<linearGradient id="paint0_linear_7_3436" x1="-18.496" y1="-30.3942" x2="16.6349" y2="21.7762" gradientUnits="userSpaceOnUse">
<stop stop-color="#EDA02C"/>
<stop offset="0.239583" stop-color="#FF5C00"/>
<stop offset="0.541667" stop-color="#FF4358"/>
<stop offset="0.739583" stop-color="#DF43B3"/>
<stop offset="1" stop-color="#B826D0"/>
</linearGradient>
<linearGradient id="paint1_linear_7_3436" x1="-18.496" y1="-30.3942" x2="16.6349" y2="21.7762" gradientUnits="userSpaceOnUse">
<stop stop-color="#EDA02C"/>
<stop offset="0.239583" stop-color="#FF5C00"/>
<stop offset="0.541667" stop-color="#FF4358"/>
<stop offset="0.739583" stop-color="#DF43B3"/>
<stop offset="1" stop-color="#B826D0"/>
</linearGradient>
<linearGradient id="paint2_linear_7_3436" x1="-18.496" y1="-30.3942" x2="16.6349" y2="21.7762" gradientUnits="userSpaceOnUse">
<stop stop-color="#EDA02C"/>
<stop offset="0.239583" stop-color="#FF5C00"/>
<stop offset="0.541667" stop-color="#FF4358"/>
<stop offset="0.739583" stop-color="#DF43B3"/>
<stop offset="1" stop-color="#B826D0"/>
</linearGradient>
</defs>
</svg>
